<svg width="150" height="72" viewBox="0 0 150 72" fill="none" xmlns="http://www.w3.org/2000/svg">
<rect width="150" height="72" rx="24" fill="#EFEFEF"/>
<path d="M70.7873 44C75.0371 44 77.5062 41.8554 77.5062 38.5542C77.5062 34.988 74.2061 34.0723 71.001 33.1084C68.8405 32.4578 67.8908 32.0723 67.8908 30.9157C67.8908 29.9277 68.793 29.494 70.0751 29.494C71.7132 29.494 72.7579 30.2892 72.9478 31.6145H77.2688C77.1501 28.1205 74.0399 26 70.0751 26C66.4188 26 63.5223 27.4699 63.5223 31.2289C63.5223 34.3133 66.1577 35.4699 69.1016 36.3855C71.4521 37.1084 73.1377 37.494 73.1377 38.9639C73.1377 39.8554 72.3305 40.506 70.7398 40.506C68.8167 40.506 67.321 39.759 67.321 37.759H63C63 41.7108 66.3476 44 70.7873 44Z" fill="black"/>
<path d="M83.7571 43.6145V26.3855H79.4836V43.6145H83.7571Z" fill="black"/>
<path d="M90.0669 43.6145V37.3735H94.0317C97.5693 37.3735 99.7772 35.494 99.7772 31.8795C99.7772 28.2651 97.5693 26.3855 94.0317 26.3855H85.7933V43.6145H90.0669ZM90.0669 33.8313V29.9277H93.0346C94.5066 29.9277 95.4088 30.4337 95.4088 31.8795C95.4088 33.3253 94.5066 33.8313 93.0346 33.8313H90.0669Z" fill="black"/>
<path d="M108.281 44C112.531 44 115 41.8554 115 38.5542C115 34.988 111.7 34.0723 108.495 33.1084C106.334 32.4578 105.385 32.0723 105.385 30.9157C105.385 29.9277 106.287 29.494 107.569 29.494C109.207 29.494 110.252 30.2892 110.442 31.6145H114.763C114.644 28.1205 111.534 26 107.569 26C103.913 26 101.016 27.4699 101.016 31.2289C101.016 34.3133 103.651 35.4699 106.595 36.3855C108.946 37.1084 110.632 37.494 110.632 38.9639C110.632 39.8554 109.824 40.506 108.234 40.506C106.311 40.506 104.815 39.759 104.815 37.759H100.494C100.494 41.7108 103.841 44 108.281 44Z" fill="black"/>
<path d="M37.1176 25C36.8024 25 36.3929 25.1459 35.8076 25.5254C36.04 25.7997 36.2861 26.093 36.7726 26.6537C37.1114 27.0441 37.4534 27.4324 37.7117 27.7135C37.7139 27.716 37.7149 27.7168 37.7171 27.7192L39.5272 26.6685L38.6687 25.8395C38.0071 25.2885 37.5763 25.027 37.1794 25.002C37.1588 25.0007 37.1383 25 37.1176 25ZM44.1536 25.8837C44.102 25.8831 44.0503 25.8833 43.9987 25.8843C43.3858 25.8956 42.8151 26.015 42.4318 26.2021L38.4907 28.4895C38.6342 28.5214 38.7769 28.5596 38.9176 28.6079C39.9298 28.9549 40.8567 29.6756 41.822 30.6411L54.504 43.1508L59.2488 40.5473L46.7733 26.7541C46.2661 26.2947 45.4555 25.9978 44.6233 25.9107C44.4672 25.8945 44.3104 25.8855 44.1535 25.8838L44.1536 25.8837ZM35.0342 26.2479C34.0062 27.4621 33.8289 28.4267 34.1362 29.5879C34.1767 29.7413 34.3153 29.9604 34.5096 30.2014C34.6419 30.0119 34.7804 29.8267 34.9248 29.6461C35.1586 29.3534 35.4161 29.108 35.6915 28.9103L35.6853 28.8985L35.8474 28.8042C35.9261 28.7541 36.0068 28.7073 36.0894 28.664L36.7848 28.2603C36.5122 27.9578 36.2426 27.6527 35.9761 27.3449C35.6604 26.9807 35.3464 26.615 35.0342 26.2479ZM45.8209 27.0353L49.2436 30.6487C46.5433 30.3536 45.9161 31.4222 45.1991 32.6526L41.8396 29.1778L45.8209 27.0353ZM37.7008 29.4406C37.6588 29.4397 37.6168 29.4397 37.5748 29.4408C37.166 29.4513 36.7423 29.5613 36.271 29.7856C36.0931 29.9198 35.92 30.09 35.7489 30.3043C34.2389 32.1947 33.9647 33.7692 34.2557 35.1955C34.5466 36.6218 35.459 37.9292 36.4773 39.0893C37.2574 39.9781 38.1683 40.4951 39.3175 40.7259C40.4667 40.9567 41.8627 40.8845 43.5351 40.5222C45.4831 40.1004 47.4028 41.0156 49.1489 42.1432C50.6793 43.1316 52.1182 44.3165 53.3079 45.07L53.8229 43.9605L41.0776 31.3881L41.0763 31.3868C40.1667 30.4772 39.344 29.8689 38.5754 29.6054C38.2813 29.5045 37.9939 29.4476 37.7008 29.4406ZM59.2094 41.7721L54.9056 44.1336L54.2916 45.4559L58.442 43.2053L59.2093 41.7721L59.2094 41.7721Z" fill="black"/>
</svg>
